<mxfile host="65bd71144e">
    <diagram id="Z4IUh8P_uAFvRX8ZZX0e" name="Automotive Wiring Guide">
        <mxGraphModel dx="1131" dy="903" grid="1" gridSize="10" guides="1" tooltips="1" connect="1" arrows="1" fold="1" page="1" pageScale="1" pageWidth="1000" pageHeight="350" math="0" shadow="0">
            <root>
                <mxCell id="0"/>
                <mxCell id="1" parent="0"/>
                <mxCell id="dreamkit_main" value="" style="rounded=1;whiteSpace=wrap;html=1;strokeWidth=4;fillColor=none;" parent="1" vertex="1">
                    <mxGeometry x="400" y="80" width="500" height="200" as="geometry"/>
                </mxCell>
                <mxCell id="dreamkit_housing" value="" style="rounded=1;whiteSpace=wrap;html=1;strokeWidth=1;fillColor=none;" parent="1" vertex="1">
                    <mxGeometry x="410" y="90" width="480" height="180" as="geometry"/>
                </mxCell>
                <mxCell id="title" value="DreamKIT Wiring Guide" style="text;html=1;strokeColor=none;fillColor=none;align=center;verticalAlign=middle;whiteSpace=wrap;rounded=0;fontSize=18;fontStyle=1;" parent="1" vertex="1">
                    <mxGeometry x="330" width="300" height="30" as="geometry"/>
                </mxCell>
                <mxCell id="hvac_main" value="" style="rounded=1;whiteSpace=wrap;html=1;strokeWidth=3;fillColor=none;" parent="1" vertex="1">
                    <mxGeometry x="50" y="60" width="140" height="80" as="geometry"/>
                </mxCell>
                <mxCell id="hvac_title" value="HVAC SYSTEM" style="text;html=1;strokeColor=none;fillColor=none;align=center;verticalAlign=middle;whiteSpace=wrap;rounded=0;fontSize=14;fontStyle=1;" parent="1" vertex="1">
                    <mxGeometry x="70" y="30" width="100" height="20" as="geometry"/>
                </mxCell>
                <mxCell id="hvac_housing" value="" style="rounded=1;whiteSpace=wrap;html=1;strokeWidth=1;fillColor=none;" parent="1" vertex="1">
                    <mxGeometry x="60" y="70" width="120" height="60" as="geometry"/>
                </mxCell>
                <mxCell id="hvac_label" value="HVAC" style="rounded=0;whiteSpace=wrap;html=1;fillColor=#000000;fontColor=#FFFFFF;fontSize=7;fontStyle=1;" parent="1" vertex="1">
                    <mxGeometry x="100" y="75" width="40" height="10" as="geometry"/>
                </mxCell>
                <mxCell id="hvac_fan1" value="FAN 1" style="rounded=0;whiteSpace=wrap;html=1;strokeWidth=1;fillColor=none;fontSize=5;" parent="1" vertex="1">
                    <mxGeometry x="95" y="90" width="25" height="20" as="geometry"/>
                </mxCell>
                <mxCell id="hvac_fan2" value="FAN 2" style="rounded=0;whiteSpace=wrap;html=1;strokeWidth=1;fillColor=none;fontSize=5;" parent="1" vertex="1">
                    <mxGeometry x="125" y="90" width="25" height="20" as="geometry"/>
                </mxCell>
                <mxCell id="hvac_status" value="" style="rounded=0;whiteSpace=wrap;html=1;strokeWidth=1;fillColor=none;fontSize=5;" parent="1" vertex="1">
                    <mxGeometry x="95" y="115" width="55" height="10" as="geometry"/>
                </mxCell>
                <mxCell id="hvac_a2w" value="A2W" style="rounded=0;whiteSpace=wrap;html=1;fillColor=#000000;fontColor=#FFFFFF;fontSize=12;fontStyle=1;" parent="1" vertex="1">
                    <mxGeometry x="190" y="94" width="30" height="12" as="geometry"/>
                </mxCell>
                <mxCell id="light_main" value="" style="rounded=1;whiteSpace=wrap;html=1;strokeWidth=3;fillColor=none;" parent="1" vertex="1">
                    <mxGeometry x="50" y="200" width="140" height="120" as="geometry"/>
                </mxCell>
                <mxCell id="light_title" value="LIGHT SYSTEM" style="text;html=1;strokeColor=none;fillColor=none;align=center;verticalAlign=middle;whiteSpace=wrap;rounded=0;fontSize=14;fontStyle=1;" parent="1" vertex="1">
                    <mxGeometry x="70" y="170" width="100" height="20" as="geometry"/>
                </mxCell>
                <mxCell id="light_base" value="" style="rounded=0;whiteSpace=wrap;html=1;strokeWidth=1;fillColor=none;" parent="1" vertex="1">
                    <mxGeometry x="60" y="290" width="120" height="25" as="geometry"/>
                </mxCell>
                <mxCell id="light_enclosure" value="" style="rounded=0;whiteSpace=wrap;html=1;strokeWidth=1;fillColor=none;strokeStyle=dashed;" parent="1" vertex="1">
                    <mxGeometry x="60" y="220" width="120" height="70" as="geometry"/>
                </mxCell>
                <mxCell id="light_car" value="" style="rounded=1;whiteSpace=wrap;html=1;strokeWidth=1;fillColor=none;" parent="1" vertex="1">
                    <mxGeometry x="80" y="230" width="80" height="20" as="geometry"/>
                </mxCell>
                <mxCell id="car_wheel_left" value="" style="ellipse;whiteSpace=wrap;html=1;strokeWidth=2;fillColor=none;" parent="1" vertex="1">
                    <mxGeometry x="86" y="251" width="20" height="20" as="geometry"/>
                </mxCell>
                <mxCell id="car_wheel_left_inner" value="" style="ellipse;whiteSpace=wrap;html=1;strokeWidth=1;fillColor=none;" parent="1" vertex="1">
                    <mxGeometry x="91" y="256" width="10" height="10" as="geometry"/>
                </mxCell>
                <mxCell id="car_wheel_left_spokes1" value="" style="endArrow=none;html=1;strokeWidth=1;" parent="1" edge="1">
                    <mxGeometry width="50" height="50" relative="1" as="geometry">
                        <mxPoint x="86" y="261" as="sourcePoint"/>
                        <mxPoint x="106" y="261" as="targetPoint"/>
                    </mxGeometry>
                </mxCell>
                <mxCell id="car_wheel_left_spokes2" value="" style="endArrow=none;html=1;strokeWidth=1;" parent="1" edge="1">
                    <mxGeometry width="50" height="50" relative="1" as="geometry">
                        <mxPoint x="96" y="251" as="sourcePoint"/>
                        <mxPoint x="96" y="271" as="targetPoint"/>
                    </mxGeometry>
                </mxCell>
                <mxCell id="car_wheel_right" value="" style="ellipse;whiteSpace=wrap;html=1;strokeWidth=2;fillColor=none;" parent="1" vertex="1">
                    <mxGeometry x="140" y="251" width="20" height="20" as="geometry"/>
                </mxCell>
                <mxCell id="car_wheel_right_inner" value="" style="ellipse;whiteSpace=wrap;html=1;strokeWidth=1;fillColor=none;" parent="1" vertex="1">
                    <mxGeometry x="145" y="256" width="10" height="10" as="geometry"/>
                </mxCell>
                <mxCell id="car_wheel_right_spokes1" value="" style="endArrow=none;html=1;strokeWidth=1;" parent="1" edge="1">
                    <mxGeometry width="50" height="50" relative="1" as="geometry">
                        <mxPoint x="140" y="261" as="sourcePoint"/>
                        <mxPoint x="160" y="261" as="targetPoint"/>
                    </mxGeometry>
                </mxCell>
                <mxCell id="car_wheel_right_spokes2" value="" style="endArrow=none;html=1;strokeWidth=1;" parent="1" edge="1">
                    <mxGeometry width="50" height="50" relative="1" as="geometry">
                        <mxPoint x="150" y="251" as="sourcePoint"/>
                        <mxPoint x="150" y="271" as="targetPoint"/>
                    </mxGeometry>
                </mxCell>
                <mxCell id="light_a3w" value="A3W" style="rounded=0;whiteSpace=wrap;html=1;fillColor=#000000;fontColor=#FFFFFF;fontSize=12;fontStyle=1;" parent="1" vertex="1">
                    <mxGeometry x="190" y="250" width="30" height="12" as="geometry"/>
                </mxCell>
                <mxCell id="29" style="edgeStyle=none;html=1;exitX=0.25;exitY=0;exitDx=0;exitDy=0;endArrow=none;endFill=0;dashed=1;" edge="1" parent="1" source="dreamkit_main">
                    <mxGeometry relative="1" as="geometry">
                        <mxPoint x="460" y="110" as="targetPoint"/>
                        <Array as="points">
                            <mxPoint x="525" y="110"/>
                        </Array>
                    </mxGeometry>
                </mxCell>
                <mxCell id="dreamkit_title" value="DREAMKIT" style="text;html=1;strokeColor=none;fillColor=none;align=center;verticalAlign=middle;whiteSpace=wrap;rounded=0;fontSize=18;fontStyle=1;" parent="1" vertex="1">
                    <mxGeometry x="550" y="298" width="200" height="30" as="geometry"/>
                </mxCell>
                <mxCell id="2" style="edgeStyle=none;html=1;entryX=0.25;entryY=1;entryDx=0;entryDy=0;exitX=0.129;exitY=-0.006;exitDx=0;exitDy=0;exitPerimeter=0;endArrow=none;endFill=0;fillColor=#e51400;strokeColor=light-dark(#000000, #ff6d6d);dashed=1;" parent="1" source="dreamkit_main" target="s32g_can1" edge="1">
                    <mxGeometry relative="1" as="geometry">
                        <Array as="points">
                            <mxPoint x="465" y="110"/>
                            <mxPoint x="420" y="110"/>
                            <mxPoint x="418" y="220"/>
                            <mxPoint x="467" y="220"/>
                        </Array>
                        <mxPoint x="393" y="139.41176470588232" as="sourcePoint"/>
                        <mxPoint x="475" y="189" as="targetPoint"/>
                    </mxGeometry>
                </mxCell>
                <mxCell id="6" style="edgeStyle=orthogonalEdgeStyle;html=1;entryX=1;entryY=0.5;entryDx=0;entryDy=0;strokeWidth=2;endArrow=none;endFill=0;exitX=0;exitY=0.5;exitDx=0;exitDy=0;" edge="1" parent="1" source="dreamkit_a2" target="hvac_a2w">
                    <mxGeometry relative="1" as="geometry">
                        <mxPoint x="440" y="70" as="sourcePoint"/>
                    </mxGeometry>
                </mxCell>
                <mxCell id="dreamkit_a2" value="A2" style="rounded=0;whiteSpace=wrap;html=1;fillColor=#000000;fontColor=#FFFFFF;fontSize=16;fontStyle=1;" parent="1" vertex="1">
                    <mxGeometry x="447" y="58" width="35" height="18" as="geometry"/>
                </mxCell>
                <mxCell id="5" style="edgeStyle=orthogonalEdgeStyle;html=1;strokeWidth=2;endArrow=none;endFill=0;exitX=0.5;exitY=0;exitDx=0;exitDy=0;" edge="1" parent="1" source="dreamkit_a3">
                    <mxGeometry relative="1" as="geometry">
                        <mxPoint x="360" y="185" as="sourcePoint"/>
                        <mxPoint x="220" y="256" as="targetPoint"/>
                        <Array as="points">
                            <mxPoint x="521" y="57"/>
                            <mxPoint x="520" y="57"/>
                            <mxPoint x="520" y="40"/>
                            <mxPoint x="300" y="40"/>
                            <mxPoint x="300" y="256"/>
                        </Array>
                    </mxGeometry>
                </mxCell>
                <mxCell id="dreamkit_a3" value="A3" style="rounded=0;whiteSpace=wrap;html=1;fillColor=#000000;fontColor=#FFFFFF;fontSize=16;fontStyle=1;" parent="1" vertex="1">
                    <mxGeometry x="503" y="58" width="35" height="18" as="geometry"/>
                </mxCell>
                <mxCell id="4" style="edgeStyle=none;html=1;entryX=0.5;entryY=0;entryDx=0;entryDy=0;strokeWidth=2;strokeColor=#000000;endArrow=none;endFill=0;" parent="1" source="dreamkit_pwr" target="power_socket" edge="1">
                    <mxGeometry relative="1" as="geometry">
                        <Array as="points">
                            <mxPoint x="320" y="239"/>
                            <mxPoint x="320" y="320"/>
                            <mxPoint x="240" y="320"/>
                        </Array>
                    </mxGeometry>
                </mxCell>
                <mxCell id="dreamkit_pwr" value="PWR" style="rounded=0;whiteSpace=wrap;html=1;fillColor=#000000;fontColor=#FFFFFF;fontSize=16;fontStyle=1;" parent="1" vertex="1">
                    <mxGeometry x="360" y="230" width="35" height="18" as="geometry"/>
                </mxCell>
                <mxCell id="label_a2" value="(CAN1)" style="text;html=1;strokeColor=none;fillColor=none;align=center;verticalAlign=middle;whiteSpace=wrap;rounded=0;fontSize=11;" parent="1" vertex="1">
                    <mxGeometry x="444.5" y="45" width="40" height="15" as="geometry"/>
                </mxCell>
                <mxCell id="label_a3" value="(CAN1)" style="text;html=1;strokeColor=none;fillColor=none;align=center;verticalAlign=middle;whiteSpace=wrap;rounded=0;fontSize=11;" parent="1" vertex="1">
                    <mxGeometry x="520" y="45" width="40" height="15" as="geometry"/>
                </mxCell>
                <mxCell id="power_socket" value="" style="ellipse;whiteSpace=wrap;html=1;fillColor=#FFFFFF;strokeColor=#000000;strokeWidth=3;" parent="1" vertex="1">
                    <mxGeometry x="223" y="346" width="34" height="34" as="geometry"/>
                </mxCell>
                <mxCell id="power_socket_holes" value="" style="ellipse;whiteSpace=wrap;html=1;fillColor=#000000;" parent="1" vertex="1">
                    <mxGeometry x="231" y="356" width="5" height="5" as="geometry"/>
                </mxCell>
                <mxCell id="power_socket_label" value="POWER SOCKET" style="text;html=1;strokeColor=none;fillColor=none;align=center;verticalAlign=middle;whiteSpace=wrap;rounded=0;fontSize=12;fontStyle=1;" parent="1" vertex="1">
                    <mxGeometry x="226.67" y="397" width="26.67" height="5" as="geometry"/>
                </mxCell>
                <mxCell id="power_wire_label" value="&lt;font style=&quot;color: rgb(0, 0, 0);&quot;&gt;PWR Cable&lt;/font&gt;" style="text;html=1;strokeColor=none;fillColor=none;align=center;verticalAlign=middle;whiteSpace=wrap;rounded=0;fontSize=10;fontStyle=1;fontColor=#FF0000;" parent="1" vertex="1">
                    <mxGeometry x="244" y="300" width="60" height="15" as="geometry"/>
                </mxCell>
                <mxCell id="7" value="&lt;font style=&quot;font-size: 20px;&quot;&gt;&lt;font style=&quot;color: rgb(204, 0, 102);&quot;&gt;dream&lt;/font&gt;&lt;font style=&quot;color: rgb(0, 204, 0);&quot;&gt;KIT&lt;/font&gt;&lt;/font&gt;" style="text;html=1;align=center;verticalAlign=middle;whiteSpace=wrap;rounded=0;rotation=-90;" vertex="1" parent="1">
                    <mxGeometry x="840" y="170" width="60" height="30" as="geometry"/>
                </mxCell>
                <mxCell id="18" value="" style="shape=trapezoid;perimeter=trapezoidPerimeter;whiteSpace=wrap;html=1;fixedSize=1;rounded=1;" vertex="1" parent="1">
                    <mxGeometry x="540" y="240" width="220" height="30" as="geometry"/>
                </mxCell>
                <mxCell id="19" value="" style="group" vertex="1" connectable="0" parent="1">
                    <mxGeometry x="447" y="126" width="400" height="80" as="geometry"/>
                </mxCell>
                <mxCell id="s32g_module" value="" style="rounded=0;whiteSpace=wrap;html=1;strokeWidth=1;fillColor=none;" parent="19" vertex="1">
                    <mxGeometry width="120" height="80" as="geometry"/>
                </mxCell>
                <mxCell id="s32g_title" value="S32G" style="text;html=1;strokeColor=none;fillColor=none;align=center;verticalAlign=middle;whiteSpace=wrap;rounded=0;fontSize=14;fontStyle=1;" parent="19" vertex="1">
                    <mxGeometry x="40" y="5" width="40" height="20" as="geometry"/>
                </mxCell>
                <mxCell id="s32g_arm" value="ARM" style="rounded=0;whiteSpace=wrap;html=1;strokeWidth=1;fillColor=none;fontSize=9;" parent="19" vertex="1">
                    <mxGeometry x="10" y="25" width="30" height="25" as="geometry"/>
                </mxCell>
                <mxCell id="s32g_m7" value="M7" style="rounded=0;whiteSpace=wrap;html=1;strokeWidth=1;fillColor=none;fontSize=9;" parent="19" vertex="1">
                    <mxGeometry x="50" y="25" width="30" height="25" as="geometry"/>
                </mxCell>
                <mxCell id="s32g_m4" value="M4" style="rounded=0;whiteSpace=wrap;html=1;strokeWidth=1;fillColor=none;fontSize=9;" parent="19" vertex="1">
                    <mxGeometry x="90" y="25" width="30" height="25" as="geometry"/>
                </mxCell>
                <mxCell id="s32g_can1" value="CAN1" style="rounded=0;whiteSpace=wrap;html=1;fillColor=#000000;fontColor=#FFFFFF;fontSize=9;" parent="19" vertex="1">
                    <mxGeometry x="10" y="55" width="40" height="18" as="geometry"/>
                </mxCell>
                <mxCell id="s32g_can2" value="CAN2" style="rounded=0;whiteSpace=wrap;html=1;fillColor=#000000;fontColor=#FFFFFF;fontSize=9;" parent="19" vertex="1">
                    <mxGeometry x="60" y="55" width="40" height="18" as="geometry"/>
                </mxCell>
                <mxCell id="orin_module" value="" style="rounded=0;whiteSpace=wrap;html=1;strokeWidth=1;fillColor=none;" parent="19" vertex="1">
                    <mxGeometry x="140" width="120" height="80" as="geometry"/>
                </mxCell>
                <mxCell id="orin_title" value="ORIN" style="text;html=1;strokeColor=none;fillColor=none;align=center;verticalAlign=middle;whiteSpace=wrap;rounded=0;fontSize=14;fontStyle=1;" parent="19" vertex="1">
                    <mxGeometry x="180" y="5" width="40" height="20" as="geometry"/>
                </mxCell>
                <mxCell id="orin_cpu" value="CPU" style="rounded=0;whiteSpace=wrap;html=1;strokeWidth=1;fillColor=none;fontSize=11;" parent="19" vertex="1">
                    <mxGeometry x="150" y="25" width="40" height="40" as="geometry"/>
                </mxCell>
                <mxCell id="orin_mem" value="MEM" style="rounded=0;whiteSpace=wrap;html=1;strokeWidth=1;fillColor=none;fontSize=10;" parent="19" vertex="1">
                    <mxGeometry x="200" y="25" width="40" height="20" as="geometry"/>
                </mxCell>
                <mxCell id="orin_gpu" value="GPU" style="rounded=0;whiteSpace=wrap;html=1;strokeWidth=1;fillColor=none;fontSize=10;" parent="19" vertex="1">
                    <mxGeometry x="200" y="50" width="40" height="20" as="geometry"/>
                </mxCell>
                <mxCell id="ivi_module" value="" style="rounded=0;whiteSpace=wrap;html=1;strokeWidth=1;fillColor=none;" parent="19" vertex="1">
                    <mxGeometry x="280" width="120" height="80" as="geometry"/>
                </mxCell>
                <mxCell id="ivi_title" value="IVI" style="text;html=1;strokeColor=none;fillColor=none;align=center;verticalAlign=middle;whiteSpace=wrap;rounded=0;fontSize=14;fontStyle=1;" parent="19" vertex="1">
                    <mxGeometry x="320" y="5" width="40" height="20" as="geometry"/>
                </mxCell>
                <mxCell id="ivi_display" value="DISPLAY" style="rounded=0;whiteSpace=wrap;html=1;strokeWidth=1;fillColor=none;fontSize=10;" parent="19" vertex="1">
                    <mxGeometry x="290" y="25" width="100" height="20" as="geometry"/>
                </mxCell>
                <mxCell id="ivi_audio" value="AUDIO" style="rounded=0;whiteSpace=wrap;html=1;strokeWidth=1;fillColor=none;fontSize=10;" parent="19" vertex="1">
                    <mxGeometry x="290" y="50" width="40" height="20" as="geometry"/>
                </mxCell>
                <mxCell id="ivi_usb" value="USB" style="rounded=0;whiteSpace=wrap;html=1;strokeWidth=1;fillColor=none;fontSize=10;" parent="19" vertex="1">
                    <mxGeometry x="340" y="50" width="50" height="20" as="geometry"/>
                </mxCell>
                <mxCell id="pcie_conn" value="" style="endArrow=none;html=1;strokeWidth=2;" parent="19" edge="1">
                    <mxGeometry width="50" height="50" relative="1" as="geometry">
                        <mxPoint x="120" y="40" as="sourcePoint"/>
                        <mxPoint x="140" y="40" as="targetPoint"/>
                    </mxGeometry>
                </mxCell>
                <mxCell id="pcie_label" value="PCIe" style="text;html=1;strokeColor=none;fillColor=none;align=center;verticalAlign=middle;whiteSpace=wrap;rounded=0;fontSize=8;" parent="19" vertex="1">
                    <mxGeometry x="115" y="30" width="30" height="10" as="geometry"/>
                </mxCell>
                <mxCell id="uart_conn" value="" style="endArrow=none;html=1;strokeWidth=2;" parent="19" edge="1">
                    <mxGeometry width="50" height="50" relative="1" as="geometry">
                        <mxPoint x="260" y="40" as="sourcePoint"/>
                        <mxPoint x="280" y="40" as="targetPoint"/>
                    </mxGeometry>
                </mxCell>
                <mxCell id="uart_label" value="&lt;font style=&quot;font-size: 6px;&quot;&gt;HDMI&lt;/font&gt;" style="text;html=1;strokeColor=none;fillColor=none;align=center;verticalAlign=middle;whiteSpace=wrap;rounded=0;fontSize=8;" parent="19" vertex="1">
                    <mxGeometry x="255" y="30" width="30" height="10" as="geometry"/>
                </mxCell>
                <mxCell id="21" value="" style="shape=trapezoid;perimeter=trapezoidPerimeter;whiteSpace=wrap;html=1;fixedSize=1;rounded=1;rotation=-180;" vertex="1" parent="1">
                    <mxGeometry x="530" y="89" width="230" height="30" as="geometry"/>
                </mxCell>
                <mxCell id="22" value="" style="rounded=0;whiteSpace=wrap;html=1;fillColor=#000000;fontColor=#FFFFFF;fontSize=16;fontStyle=1;" vertex="1" parent="1">
                    <mxGeometry x="449.5" y="282" width="35" height="18" as="geometry"/>
                </mxCell>
                <mxCell id="23" value="" style="rounded=0;whiteSpace=wrap;html=1;fillColor=#000000;fontColor=#FFFFFF;fontSize=16;fontStyle=1;" vertex="1" parent="1">
                    <mxGeometry x="505" y="280" width="35" height="18" as="geometry"/>
                </mxCell>
                <mxCell id="31" value="(CAN0)" style="text;html=1;strokeColor=none;fillColor=none;align=center;verticalAlign=middle;whiteSpace=wrap;rounded=0;fontSize=11;" vertex="1" parent="1">
                    <mxGeometry x="447" y="300" width="40" height="15" as="geometry"/>
                </mxCell>
                <mxCell id="32" value="(CAN0)" style="text;html=1;strokeColor=none;fillColor=none;align=center;verticalAlign=middle;whiteSpace=wrap;rounded=0;fontSize=11;" vertex="1" parent="1">
                    <mxGeometry x="505" y="298" width="40" height="15" as="geometry"/>
                </mxCell>
                <mxCell id="33" value="" style="whiteSpace=wrap;html=1;aspect=fixed;" vertex="1" parent="1">
                    <mxGeometry x="70" y="85" width="10" height="10" as="geometry"/>
                </mxCell>
                <mxCell id="34" value="" style="whiteSpace=wrap;html=1;aspect=fixed;" vertex="1" parent="1">
                    <mxGeometry x="70" y="97" width="10" height="10" as="geometry"/>
                </mxCell>
                <mxCell id="35" value="" style="whiteSpace=wrap;html=1;aspect=fixed;" vertex="1" parent="1">
                    <mxGeometry x="70" y="109" width="10" height="10" as="geometry"/>
                </mxCell>
                <mxCell id="37" value="" style="ellipse;whiteSpace=wrap;html=1;aspect=fixed;" vertex="1" parent="1">
                    <mxGeometry x="72" y="87" width="6" height="6" as="geometry"/>
                </mxCell>
                <mxCell id="38" value="" style="triangle;whiteSpace=wrap;html=1;rotation=90;" vertex="1" parent="1">
                    <mxGeometry x="73" y="100" width="4" height="6" as="geometry"/>
                </mxCell>
                <mxCell id="39" value="&lt;font style=&quot;font-size: 6px;&quot;&gt;LED1&lt;/font&gt;" style="rounded=0;whiteSpace=wrap;html=1;rotation=60;" vertex="1" parent="1">
                    <mxGeometry x="80" y="220" width="40" height="14.17" as="geometry"/>
                </mxCell>
                <mxCell id="40" value="&lt;font style=&quot;font-size: 6px;&quot;&gt;LED2&lt;/font&gt;" style="rounded=0;whiteSpace=wrap;html=1;rotation=-60;" vertex="1" parent="1">
                    <mxGeometry x="120" y="220" width="40" height="14.17" as="geometry"/>
                </mxCell>
                <mxCell id="41" value="" style="ellipse;whiteSpace=wrap;html=1;fillColor=#000000;" vertex="1" parent="1">
                    <mxGeometry x="244" y="356" width="5" height="5" as="geometry"/>
                </mxCell>
                <mxCell id="42" value="" style="ellipse;whiteSpace=wrap;html=1;fillColor=#000000;" vertex="1" parent="1">
                    <mxGeometry x="237" y="365" width="5" height="5" as="geometry"/>
                </mxCell>
            </root>
        </mxGraphModel>
    </diagram>
</mxfile>